<?xml version="1.0" encoding="UTF-8"?>
<svg id="Capa_1" xmlns="http://www.w3.org/2000/svg" version="1.1" xmlns:xlink="http://www.w3.org/1999/xlink" viewBox="0 0 841.9 595.3">
  <!-- Generator: Adobe Illustrator 29.3.1, SVG Export Plug-In . SVG Version: 2.1.0 Build 151)  -->
  <defs>
    <style>
      .st0 {
        font-size: 9.8px;
      }

      .st0, .st1, .st2 {
        isolation: isolate;
      }

      .st0, .st2 {
        font-family: ArialMT, Arial;
      }

      .st3 {
        fill: #422c1e;
      }

      .st2 {
        font-size: 10.4px;
      }

      .st4 {
        fill: #f4f2f2;
      }

      .st4, .st5 {
        stroke: #000;
        stroke-miterlimit: 10;
        stroke-width: .8px;
      }

      .st5 {
        fill: #bcb8b8;
      }
    </style>
  </defs>
  <text class="st2" transform="translate(274.1 209.3)"><tspan x="0" y="0">Av. Rosario</tspan></text>
  <text class="st2" transform="translate(69.8 209.3)"><tspan x="0" y="0">Vistas</tspan></text>
  <text class="st2" transform="translate(71.9 274.2)"><tspan x="0" y="0">Pisos</tspan></text>
  <text class="st2" transform="translate(544.2 209.3)"><tspan x="0" y="0">Av. Choquehuanca</tspan></text>
  <rect id="S01" class="st4" x="133.8" y="357.6" width="83.1" height="32.1"/>
  <rect id="S02" class="st4" x="216.8" y="357.6" width="83.1" height="32.1"/>
  <rect id="S03" class="st4" x="299.9" y="357.6" width="83.1" height="32.1"/>
  <rect id="S04" class="st4" x="383" y="357.6" width="83.1" height="32.1"/>
  <rect id="_x31_01" class="st4" x="133.8" y="316.6" width="83.1" height="32.1"/>
  <rect id="_x31_02" class="st4" x="216.8" y="316.6" width="83.1" height="32.1"/>
  <rect id="_x31_03" class="st4" x="299.9" y="316.6" width="83.1" height="32.1"/>
  <rect id="_x31_04" class="st4" x="383" y="316.6" width="83.1" height="32.1"/>
  <rect id="_x32_01" class="st4" x="133.8" y="285.6" width="83.1" height="32.1"/>
  <rect id="_x32_02" class="st4" x="216.8" y="285.6" width="83.1" height="32.1"/>
  <rect id="_x32_03" class="st4" x="299.9" y="285.6" width="83.1" height="32.1"/>
  <rect id="_x32_04" class="st4" x="383" y="285.6" width="83.1" height="32.1"/>
  <rect id="_x33_01" class="st4" x="133.8" y="253.5" width="83.1" height="32.1"/>
  <rect id="_x33_02" class="st4" x="216.8" y="253.5" width="83.1" height="32.1"/>
  <rect id="_x33_03" class="st4" x="299.9" y="253.5" width="83.1" height="32.1"/>
  <rect id="_x33_04" class="st4" x="383" y="253.5" width="83.1" height="32.1"/>
  <rect id="_x34_01" class="st4" x="133.8" y="222.8" width="83.1" height="32.1"/>
  <rect id="_x34_02" class="st4" x="216.8" y="222.8" width="83.1" height="32.1"/>
  <rect id="_x34_03" class="st4" x="299.9" y="222.8" width="83.1" height="32.1"/>
  <rect id="_x34_04" class="st4" x="383" y="222.8" width="83.1" height="32.1"/>
  <text class="st0" transform="translate(172.2 376.4)"><tspan x="0" y="0">1</tspan></text>
  <text class="st0" transform="translate(113.2 373.6)"><tspan x="0" y="0">SS</tspan></text>
  <text class="st0" transform="translate(117.8 332.7)"><tspan x="0" y="0">1</tspan></text>
  <text class="st0" transform="translate(117 269.5)"><tspan x="0" y="0">3</tspan></text>
  <text class="st0" transform="translate(117.1 301.6)"><tspan x="0" y="0">2</tspan></text>
  <text class="st0" transform="translate(116.9 238.9)"><tspan x="0" y="0">4</tspan></text>
  <text class="st0" transform="translate(337.6 376.4)"><tspan x="0" y="0">3</tspan></text>
  <text class="st0" transform="translate(422 376.4)"><tspan x="0" y="0">4</tspan></text>
  <text class="st0" transform="translate(167.6 334.5)"><tspan x="0" y="0">101</tspan></text>
  <text class="st0" transform="translate(249.3 334.5)"><tspan x="0" y="0">102</tspan></text>
  <text class="st0" transform="translate(333.9 334.5)"><tspan x="0" y="0">103</tspan></text>
  <text class="st0" transform="translate(416.9 334.5)"><tspan x="0" y="0">104</tspan></text>
  <text class="st0" transform="translate(166.9 303.4)"><tspan x="0" y="0">201</tspan></text>
  <text class="st0" transform="translate(249.3 303.4)"><tspan x="0" y="0">202</tspan></text>
  <text class="st0" transform="translate(333.9 303.4)"><tspan x="0" y="0">203</tspan></text>
  <text class="st0" transform="translate(416.9 303.4)"><tspan x="0" y="0">204</tspan></text>
  <text class="st0" transform="translate(166.8 271.3)"><tspan x="0" y="0">301</tspan></text>
  <text class="st0" transform="translate(249.3 271.3)"><tspan x="0" y="0">302</tspan></text>
  <text class="st0" transform="translate(332.4 271.3)"><tspan x="0" y="0">303</tspan></text>
  <text class="st0" transform="translate(416.9 271.3)"><tspan x="0" y="0">304</tspan></text>
  <text class="st0" transform="translate(166.7 240.7)"><tspan x="0" y="0">401</tspan></text>
  <text class="st0" transform="translate(249.3 240.7)"><tspan x="0" y="0">402</tspan></text>
  <text class="st0" transform="translate(332.4 240.7)"><tspan x="0" y="0">403</tspan></text>
  <text class="st0" transform="translate(416.9 240.7)"><tspan x="0" y="0">404</tspan></text>
  <text class="st0" transform="translate(254.5 376.4)"><tspan x="0" y="0">2</tspan></text>
  <image class="st1" width="2499" height="2791" transform="translate(30 274.2) scale(0)" xlink:href="LAYOUT rosar1o (1) (1)-1.png"/>
  <image class="st1" width="2474" height="2791" transform="translate(737.6 274.2) scale(0)" xlink:href="LAYOUT rosar1o (1) (1)-2.png"/>
  <rect id="S06" class="st4" x="554" y="357.6" width="83.1" height="32.1"/>
  <rect id="_x31_06" class="st4" x="553.8" y="316.6" width="83.1" height="32.1"/>
  <rect id="_x32_06" class="st4" x="553.8" y="285.6" width="83.1" height="32.1"/>
  <rect id="_x32_07" class="st4" x="636.9" y="285.6" width="83.1" height="32.1"/>
  <rect class="st5" x="636.9" y="317.7" width="83.1" height="32.1"/>
  <rect class="st5" x="637" y="357.6" width="83.1" height="32.1"/>
  <rect class="st3" x="16" y="348.3" width="809.8" height="9.2"/>
  <rect id="_x33_06" class="st4" x="553.8" y="253.5" width="83.1" height="32.1"/>
  <rect id="_x33_07" class="st4" x="636.9" y="253.5" width="83.1" height="32.1"/>
  <rect id="_x34_06" class="st4" x="553.8" y="222.8" width="83.1" height="32.1"/>
  <rect id="_x34_07" class="st4" x="636.9" y="222.8" width="83.1" height="32.1"/>
  <rect id="_x31_05" class="st4" x="470.5" y="316.6" width="83.1" height="32.1"/>
  <rect id="_x32_05" class="st4" x="470.5" y="285.6" width="83.1" height="32.1"/>
  <rect id="_x33_05" class="st4" x="470.5" y="253.5" width="83.1" height="32.1"/>
  <rect id="_x34_05" class="st4" x="470.5" y="222.8" width="83.1" height="32.1"/>
  <rect id="S05" class="st4" x="470.6" y="357.6" width="83.1" height="32.1"/>
  <text class="st0" transform="translate(594.3 376.4)"><tspan x="0" y="0">6</tspan></text>
  <text class="st0" transform="translate(502.3 334.5)"><tspan x="0" y="0">105</tspan></text>
  <text class="st0" transform="translate(586.3 334.5)"><tspan x="0" y="0">106</tspan></text>
  <text class="st0" transform="translate(502.6 303.4)"><tspan x="0" y="0">205</tspan></text>
  <text class="st0" transform="translate(586.3 303.4)"><tspan x="0" y="0">206</tspan></text>
  <text class="st0" transform="translate(671.4 302.7)"><tspan x="0" y="0">207</tspan></text>
  <text class="st0" transform="translate(502.6 271.3)"><tspan x="0" y="0">305</tspan></text>
  <text class="st0" transform="translate(586.6 271.3)"><tspan x="0" y="0">306</tspan></text>
  <text class="st0" transform="translate(671.7 270.6)"><tspan x="0" y="0">307</tspan></text>
  <text class="st0" transform="translate(502.6 240.7)"><tspan x="0" y="0">405</tspan></text>
  <text class="st0" transform="translate(585.3 240.7)"><tspan x="0" y="0">406</tspan></text>
  <text class="st0" transform="translate(670.4 240)"><tspan x="0" y="0">407</tspan></text>
  <text class="st0" transform="translate(509.7 376.4)"><tspan x="0" y="0">5</tspan></text>
</svg>