<?xml version="1.0" encoding="UTF-8"?>
<svg id="Depas" xmlns="http://www.w3.org/2000/svg" version="1.1" viewBox="0 0 692.43 872.66">
  <!-- Generator: Adobe Illustrator 29.5.1, SVG Export Plug-In . SVG Version: 2.1.0 Build 141)  -->
  <defs>
    <style>
      .st0 {
        fill: #f4f2f2;
      }

      .st0, .st1 {
        stroke: #000;
        stroke-miterlimit: 10;
        stroke-width: .81px;
      }

      .st2 {
        font-size: 24.31px;
      }

      .st2, .st3, .st4 {
        font-family: Rubik-Medium, Rubik;
        font-weight: 500;
      }

      .st3 {
        font-size: 18.67px;
      }

      .st1 {
        fill: #bcb8b8;
      }

      .st4 {
        font-size: 13.93px;
      }
    </style>
  </defs>
  <rect class="st0" x="95.32" y="57.12" width="68.72" height="35.54"/>
  <rect class="st0" x="164.03" y="57.12" width="68.72" height="35.54"/>
  <rect class="st0" x="232.75" y="57.12" width="68.72" height="35.54"/>
  <rect class="st0" x="301.46" y="57.12" width="68.72" height="35.54"/>
  <rect class="st0" x="370.18" y="57.12" width="68.72" height="35.54"/>
  <rect class="st0" x="438.81" y="57.08" width="68.72" height="35.54"/>
  <rect class="st0" x="507.52" y="57.12" width="68.72" height="35.54"/>
  <rect class="st0" x="576.24" y="57.12" width="68.72" height="35.54"/>
  <rect class="st0" x="95.32" y="92.66" width="68.72" height="35.54"/>
  <rect class="st0" x="164.03" y="92.66" width="68.72" height="35.54"/>
  <rect class="st0" x="232.75" y="92.66" width="68.72" height="35.54"/>
  <rect class="st0" x="301.46" y="92.66" width="68.72" height="35.54"/>
  <rect class="st0" x="370.18" y="92.66" width="68.72" height="35.54"/>
  <rect class="st0" x="438.81" y="92.63" width="68.72" height="35.54"/>
  <rect class="st0" x="507.52" y="92.66" width="68.72" height="35.54"/>
  <rect class="st0" x="576.24" y="92.66" width="68.72" height="35.54"/>
  <rect class="st0" x="95.32" y="128.2" width="68.72" height="35.54"/>
  <rect class="st0" x="164.03" y="128.2" width="68.72" height="35.54"/>
  <rect class="st0" x="232.75" y="128.2" width="68.72" height="35.54"/>
  <rect class="st0" x="301.46" y="128.2" width="68.72" height="35.54"/>
  <rect class="st0" x="370.18" y="128.2" width="68.72" height="35.54"/>
  <rect class="st0" x="438.81" y="128.17" width="68.72" height="35.54"/>
  <rect class="st0" x="507.52" y="128.2" width="68.72" height="35.54"/>
  <rect class="st0" x="576.24" y="128.2" width="68.72" height="35.54"/>
  <rect class="st0" x="95.32" y="163.74" width="68.72" height="35.54"/>
  <rect class="st0" x="164.03" y="163.74" width="68.72" height="35.54"/>
  <rect class="st0" x="232.75" y="163.74" width="68.72" height="35.54"/>
  <rect class="st0" x="301.46" y="163.74" width="68.72" height="35.54"/>
  <rect class="st0" x="370.18" y="163.74" width="68.72" height="35.54"/>
  <rect class="st0" x="438.81" y="163.71" width="68.72" height="35.54"/>
  <rect class="st0" x="507.52" y="163.74" width="68.72" height="35.54"/>
  <rect class="st0" x="576.24" y="163.74" width="68.72" height="35.54"/>
  <rect class="st0" x="95.32" y="199.29" width="68.72" height="35.54"/>
  <rect class="st0" x="164.03" y="199.29" width="68.72" height="35.54"/>
  <rect class="st0" x="232.75" y="199.29" width="68.72" height="35.54"/>
  <rect class="st0" x="301.46" y="199.29" width="68.72" height="35.54"/>
  <rect class="st0" x="370.18" y="199.29" width="68.72" height="35.54"/>
  <rect class="st0" x="438.81" y="199.26" width="68.72" height="35.54"/>
  <rect class="st0" x="507.52" y="199.29" width="68.72" height="35.54"/>
  <rect class="st0" x="576.24" y="199.29" width="68.72" height="35.54"/>
  <rect class="st0" x="95.32" y="234.83" width="68.72" height="35.54"/>
  <rect class="st0" x="164.03" y="234.83" width="68.72" height="35.54"/>
  <rect class="st0" x="232.75" y="234.83" width="68.72" height="35.54"/>
  <rect class="st0" x="301.46" y="234.83" width="68.72" height="35.54"/>
  <rect class="st0" x="370.18" y="234.83" width="68.72" height="35.54"/>
  <rect class="st0" x="438.81" y="234.8" width="68.72" height="35.54"/>
  <rect class="st0" x="507.52" y="234.83" width="68.72" height="35.54"/>
  <rect class="st0" x="576.24" y="234.83" width="68.72" height="35.54"/>
  <rect class="st0" x="95.32" y="270.37" width="68.72" height="35.54"/>
  <rect class="st0" x="164.03" y="270.37" width="68.72" height="35.54"/>
  <rect class="st0" x="232.75" y="270.37" width="68.72" height="35.54"/>
  <rect class="st0" x="301.46" y="270.37" width="68.72" height="35.54"/>
  <rect class="st0" x="370.18" y="270.37" width="68.72" height="35.54"/>
  <rect class="st0" x="438.81" y="270.34" width="68.72" height="35.54"/>
  <rect class="st0" x="507.52" y="270.37" width="68.72" height="35.54"/>
  <rect class="st0" x="576.24" y="270.37" width="68.72" height="35.54"/>
  <rect class="st0" x="95.32" y="305.91" width="68.72" height="35.54"/>
  <rect class="st0" x="164.03" y="305.91" width="68.72" height="35.54"/>
  <rect class="st0" x="232.75" y="305.91" width="68.72" height="35.54"/>
  <rect class="st0" x="301.46" y="305.91" width="68.72" height="35.54"/>
  <rect class="st0" x="370.18" y="305.91" width="68.72" height="35.54"/>
  <rect class="st0" x="438.81" y="305.88" width="68.72" height="35.54"/>
  <rect class="st0" x="507.52" y="305.91" width="68.72" height="35.54"/>
  <rect class="st0" x="576.24" y="305.91" width="68.72" height="35.54"/>
  <rect class="st0" x="95.32" y="341.46" width="68.72" height="35.54"/>
  <rect class="st0" x="164.03" y="341.46" width="68.72" height="35.54"/>
  <rect class="st0" x="232.75" y="341.46" width="68.72" height="35.54"/>
  <rect class="st0" x="301.46" y="341.46" width="68.72" height="35.54"/>
  <rect class="st0" x="370.18" y="341.46" width="68.72" height="35.54"/>
  <rect class="st0" x="438.81" y="341.43" width="68.72" height="35.54"/>
  <rect class="st0" x="507.52" y="341.46" width="68.72" height="35.54"/>
  <rect class="st0" x="576.24" y="341.46" width="68.72" height="35.54"/>
  <rect class="st0" x="95.32" y="377" width="68.72" height="35.54"/>
  <rect class="st0" x="164.03" y="377" width="68.72" height="35.54"/>
  <rect class="st0" x="232.75" y="377" width="68.72" height="35.54"/>
  <rect class="st0" x="301.46" y="377" width="68.72" height="35.54"/>
  <rect class="st0" x="370.18" y="377" width="68.72" height="35.54"/>
  <rect class="st0" x="438.81" y="376.97" width="68.72" height="35.54"/>
  <rect class="st0" x="507.52" y="377" width="68.72" height="35.54"/>
  <rect class="st0" x="576.24" y="377" width="68.72" height="35.54"/>
  <rect class="st0" x="95.32" y="412.54" width="68.72" height="35.54"/>
  <rect class="st0" x="164.03" y="412.54" width="68.72" height="35.54"/>
  <rect class="st0" x="232.75" y="412.54" width="68.72" height="35.54"/>
  <rect class="st0" x="301.46" y="412.54" width="68.72" height="35.54"/>
  <rect class="st0" x="370.18" y="412.54" width="68.72" height="35.54"/>
  <rect class="st0" x="438.81" y="412.51" width="68.72" height="35.54"/>
  <rect class="st0" x="507.52" y="412.54" width="68.72" height="35.54"/>
  <rect class="st0" x="576.24" y="412.54" width="68.72" height="35.54"/>
  <rect class="st0" x="95.32" y="448.09" width="68.72" height="35.54"/>
  <rect class="st0" x="164.03" y="448.09" width="68.72" height="35.54"/>
  <rect class="st0" x="232.75" y="448.09" width="68.72" height="35.54"/>
  <rect class="st0" x="301.46" y="448.09" width="68.72" height="35.54"/>
  <rect class="st0" x="370.18" y="448.09" width="68.72" height="35.54"/>
  <rect class="st0" x="438.81" y="448.05" width="68.72" height="35.54"/>
  <rect class="st0" x="507.52" y="448.09" width="68.72" height="35.54"/>
  <rect class="st0" x="576.24" y="448.09" width="68.72" height="35.54"/>
  <rect class="st0" x="95.32" y="483.63" width="68.72" height="35.54"/>
  <rect class="st0" x="164.03" y="483.63" width="68.72" height="35.54"/>
  <rect class="st0" x="232.75" y="483.63" width="68.72" height="35.54"/>
  <rect class="st0" x="301.46" y="483.63" width="68.72" height="35.54"/>
  <rect class="st0" x="370.18" y="483.63" width="68.72" height="35.54"/>
  <rect class="st0" x="438.81" y="483.6" width="68.72" height="35.54"/>
  <rect class="st0" x="507.52" y="483.63" width="68.72" height="35.54"/>
  <rect class="st0" x="576.24" y="483.63" width="68.72" height="35.54"/>
  <rect class="st0" x="95.32" y="519.17" width="68.72" height="35.54"/>
  <rect class="st0" x="164.03" y="519.17" width="68.72" height="35.54"/>
  <rect class="st0" x="232.75" y="519.17" width="68.72" height="35.54"/>
  <rect class="st0" x="301.46" y="519.17" width="68.72" height="35.54"/>
  <rect class="st0" x="370.18" y="519.17" width="68.72" height="35.54"/>
  <rect class="st0" x="438.81" y="519.14" width="68.72" height="35.54"/>
  <rect class="st0" x="507.52" y="519.17" width="68.72" height="35.54"/>
  <rect class="st0" x="576.24" y="519.17" width="68.72" height="35.54"/>
  <rect class="st0" x="95.32" y="554.71" width="68.72" height="35.54"/>
  <rect class="st0" x="164.03" y="554.71" width="68.72" height="35.54"/>
  <rect class="st0" x="232.75" y="554.71" width="68.72" height="35.54"/>
  <rect class="st0" x="301.46" y="554.71" width="68.72" height="35.54"/>
  <rect class="st0" x="370.18" y="554.71" width="68.72" height="35.54"/>
  <rect class="st0" x="438.81" y="554.68" width="68.72" height="35.54"/>
  <rect class="st0" x="507.52" y="554.71" width="68.72" height="35.54"/>
  <rect class="st0" x="576.24" y="554.71" width="68.72" height="35.54"/>
  <rect class="st0" x="95.32" y="590.26" width="68.72" height="35.54"/>
  <rect class="st0" x="164.03" y="590.26" width="68.72" height="35.54"/>
  <rect class="st0" x="232.75" y="590.26" width="68.72" height="35.54"/>
  <rect class="st0" x="301.46" y="590.26" width="68.72" height="35.54"/>
  <rect class="st0" x="370.18" y="590.26" width="68.72" height="35.54"/>
  <rect class="st0" x="438.81" y="590.22" width="68.72" height="35.54"/>
  <rect class="st0" x="507.52" y="590.26" width="68.72" height="35.54"/>
  <rect class="st0" x="576.24" y="590.26" width="68.72" height="35.54"/>
  <rect class="st0" x="95.32" y="625.8" width="68.72" height="35.54"/>
  <rect class="st0" x="164.03" y="625.8" width="68.72" height="35.54"/>
  <rect class="st0" x="232.75" y="625.8" width="68.72" height="35.54"/>
  <rect class="st0" x="301.46" y="625.8" width="68.72" height="35.54"/>
  <rect class="st0" x="370.18" y="625.8" width="68.72" height="35.54"/>
  <rect class="st0" x="438.81" y="625.77" width="68.72" height="35.54"/>
  <rect class="st0" x="507.52" y="625.8" width="68.72" height="35.54"/>
  <rect class="st0" x="576.24" y="625.8" width="68.72" height="35.54"/>
  <rect class="st0" x="95.32" y="661.34" width="68.72" height="35.54"/>
  <rect class="st0" x="164.03" y="661.34" width="68.72" height="35.54"/>
  <rect class="st0" x="232.75" y="661.34" width="68.72" height="35.54"/>
  <rect class="st0" x="301.46" y="661.34" width="68.72" height="35.54"/>
  <rect class="st0" x="370.18" y="661.34" width="68.72" height="35.54"/>
  <rect class="st0" x="438.81" y="661.31" width="68.72" height="35.54"/>
  <rect class="st0" x="507.52" y="661.34" width="68.72" height="35.54"/>
  <rect class="st0" x="576.24" y="661.34" width="68.72" height="35.54"/>
  <rect class="st0" x="95.32" y="696.88" width="68.72" height="35.54"/>
  <rect class="st0" x="164.03" y="696.88" width="68.72" height="35.54"/>
  <rect class="st0" x="232.75" y="696.88" width="68.72" height="35.54"/>
  <rect class="st0" x="301.46" y="696.88" width="68.72" height="35.54"/>
  <rect class="st0" x="370.18" y="696.88" width="68.72" height="35.54"/>
  <rect class="st0" x="438.81" y="696.85" width="68.72" height="35.54"/>
  <rect class="st0" x="507.52" y="696.88" width="68.72" height="35.54"/>
  <rect class="st0" x="576.24" y="696.88" width="68.72" height="35.54"/>
  <rect class="st0" x="95.32" y="732.43" width="68.72" height="35.54"/>
  <rect class="st0" x="164.03" y="732.43" width="68.72" height="35.54"/>
  <rect class="st0" x="232.75" y="732.43" width="68.72" height="35.54"/>
  <rect class="st0" x="301.46" y="732.43" width="68.72" height="35.54"/>
  <rect class="st0" x="370.18" y="732.43" width="68.72" height="35.54"/>
  <rect class="st0" x="438.81" y="732.39" width="68.72" height="35.54"/>
  <rect class="st0" x="507.52" y="732.43" width="68.72" height="35.54"/>
  <rect class="st0" x="576.24" y="732.43" width="68.72" height="35.54"/>
  <rect class="st0" x="95.32" y="767.97" width="68.72" height="35.54"/>
  <rect class="st0" x="164.03" y="767.97" width="68.72" height="35.54"/>
  <rect class="st0" x="232.75" y="767.97" width="68.72" height="35.54"/>
  <rect class="st0" x="301.46" y="767.97" width="68.72" height="35.54"/>
  <rect class="st0" x="370.18" y="767.97" width="68.72" height="35.54"/>
  <rect class="st0" x="438.81" y="767.94" width="68.72" height="35.54"/>
  <rect class="st0" x="507.52" y="767.97" width="68.72" height="35.54"/>
  <rect class="st0" x="576.24" y="767.97" width="68.72" height="35.54"/>
  <rect class="st0" x="95.32" y="803.51" width="68.72" height="35.54"/>
  <rect class="st0" x="164.03" y="803.51" width="68.72" height="35.54"/>
  <rect class="st0" x="232.75" y="803.51" width="68.72" height="35.54"/>
  <rect class="st0" x="301.46" y="803.51" width="68.72" height="35.54"/>
  <rect class="st1" x="370.18" y="803.51" width="68.72" height="35.54"/>
  <rect class="st1" x="438.9" y="803.51" width="68.72" height="35.54"/>
  <rect class="st1" x="507.61" y="803.51" width="68.72" height="35.54"/>
  <rect class="st1" x="576.33" y="803.51" width="68.72" height="35.54"/>
  <text class="st4" transform="translate(186.28 826.69)"><tspan x="0" y="0">102</tspan></text>
  <text class="st4" transform="translate(254.92 826.69)"><tspan x="0" y="0">103</tspan></text>
  <text class="st4" transform="translate(323.71 826.69)"><tspan x="0" y="0">102</tspan></text>
  <text class="st4" transform="translate(118.65 826.69)"><tspan x="0" y="0">101</tspan></text>
  <text class="st4" transform="translate(185.19 791.29)"><tspan x="0" y="0">202</tspan></text>
  <text class="st4" transform="translate(253.83 791.29)"><tspan x="0" y="0">203</tspan></text>
  <text class="st4" transform="translate(322.4 791.29)"><tspan x="0" y="0">204</tspan></text>
  <text class="st4" transform="translate(391.33 791.29)"><tspan x="0" y="0">205</tspan></text>
  <text class="st4" transform="translate(459.91 791.26)"><tspan x="0" y="0">206</tspan></text>
  <text class="st4" transform="translate(529.21 791.29)"><tspan x="0" y="0">207</tspan></text>
  <text class="st4" transform="translate(597.14 791.29)"><tspan x="0" y="0">208</tspan></text>
  <text class="st4" transform="translate(117.56 791.29)"><tspan x="0" y="0">201</tspan></text>
  <text class="st4" transform="translate(185.12 754.53)"><tspan x="0" y="0">302</tspan></text>
  <text class="st4" transform="translate(253.76 754.53)"><tspan x="0" y="0">303</tspan></text>
  <text class="st4" transform="translate(322.32 754.53)"><tspan x="0" y="0">304</tspan></text>
  <text class="st4" transform="translate(391.26 754.53)"><tspan x="0" y="0">305</tspan></text>
  <text class="st4" transform="translate(459.84 754.5)"><tspan x="0" y="0">306</tspan></text>
  <text class="st4" transform="translate(529.14 754.53)"><tspan x="0" y="0">307</tspan></text>
  <text class="st4" transform="translate(597.07 754.53)"><tspan x="0" y="0">308</tspan></text>
  <text class="st4" transform="translate(117.49 754.53)"><tspan x="0" y="0">301</tspan></text>
  <text class="st4" transform="translate(184.96 721.19)"><tspan x="0" y="0">402</tspan></text>
  <text class="st4" transform="translate(253.6 721.19)"><tspan x="0" y="0">403</tspan></text>
  <text class="st4" transform="translate(322.17 721.19)"><tspan x="0" y="0">404</tspan></text>
  <text class="st4" transform="translate(391.1 721.19)"><tspan x="0" y="0">405</tspan></text>
  <text class="st4" transform="translate(459.68 721.16)"><tspan x="0" y="0">406</tspan></text>
  <text class="st4" transform="translate(528.98 721.19)"><tspan x="0" y="0">407</tspan></text>
  <text class="st4" transform="translate(596.91 721.19)"><tspan x="0" y="0">408</tspan></text>
  <text class="st4" transform="translate(117.33 721.19)"><tspan x="0" y="0">401</tspan></text>
  <text class="st4" transform="translate(185.19 683.25)"><tspan x="0" y="0">502</tspan></text>
  <text class="st4" transform="translate(253.83 683.25)"><tspan x="0" y="0">503</tspan></text>
  <text class="st4" transform="translate(322.39 683.25)"><tspan x="0" y="0">504</tspan></text>
  <text class="st4" transform="translate(391.33 683.25)"><tspan x="0" y="0">505</tspan></text>
  <text class="st4" transform="translate(459.91 683.21)"><tspan x="0" y="0">506</tspan></text>
  <text class="st4" transform="translate(529.21 683.25)"><tspan x="0" y="0">507</tspan></text>
  <text class="st4" transform="translate(597.14 683.25)"><tspan x="0" y="0">508</tspan></text>
  <text class="st4" transform="translate(117.56 683.25)"><tspan x="0" y="0">501</tspan></text>
  <text class="st4" transform="translate(185.14 648.61)"><tspan x="0" y="0">602</tspan></text>
  <text class="st4" transform="translate(253.78 648.61)"><tspan x="0" y="0">603</tspan></text>
  <text class="st4" transform="translate(322.34 648.61)"><tspan x="0" y="0">604</tspan></text>
  <text class="st4" transform="translate(391.28 648.61)"><tspan x="0" y="0">605</tspan></text>
  <text class="st4" transform="translate(459.86 648.58)"><tspan x="0" y="0">606</tspan></text>
  <text class="st4" transform="translate(529.16 648.61)"><tspan x="0" y="0">607</tspan></text>
  <text class="st4" transform="translate(597.09 648.61)"><tspan x="0" y="0">608</tspan></text>
  <text class="st4" transform="translate(117.51 648.61)"><tspan x="0" y="0">601</tspan></text>
  <text class="st4" transform="translate(185.72 614.96)"><tspan x="0" y="0">702</tspan></text>
  <text class="st4" transform="translate(254.36 614.96)"><tspan x="0" y="0">703</tspan></text>
  <text class="st4" transform="translate(322.92 614.96)"><tspan x="0" y="0">704</tspan></text>
  <text class="st4" transform="translate(391.86 614.96)"><tspan x="0" y="0">705</tspan></text>
  <text class="st4" transform="translate(460.44 614.93)"><tspan x="0" y="0">706</tspan></text>
  <text class="st4" transform="translate(528.96 614.96)"><tspan x="0" y="0">708</tspan></text>
  <text class="st4" transform="translate(597.67 614.96)"><tspan x="0" y="0">708</tspan></text>
  <text class="st4" transform="translate(118.09 614.96)"><tspan x="0" y="0">701</tspan></text>
  <text class="st4" transform="translate(184.94 579.66)"><tspan x="0" y="0">802</tspan></text>
  <text class="st4" transform="translate(253.58 579.66)"><tspan x="0" y="0">803</tspan></text>
  <text class="st4" transform="translate(317.82 579.66)"><tspan x="0" y="0">8054</tspan></text>
  <text class="st4" transform="translate(391.08 579.66)"><tspan x="0" y="0">805</tspan></text>
  <text class="st4" transform="translate(459.66 579.63)"><tspan x="0" y="0">806</tspan></text>
  <text class="st4" transform="translate(528.96 579.66)"><tspan x="0" y="0">807</tspan></text>
  <text class="st4" transform="translate(596.89 579.66)"><tspan x="0" y="0">808</tspan></text>
  <text class="st4" transform="translate(117.31 579.66)"><tspan x="0" y="0">801</tspan></text>
  <text class="st4" transform="translate(185.21 545.16)"><tspan x="0" y="0">902</tspan></text>
  <text class="st4" transform="translate(253.85 545.16)"><tspan x="0" y="0">903</tspan></text>
  <text class="st4" transform="translate(322.41 545.16)"><tspan x="0" y="0">904</tspan></text>
  <text class="st4" transform="translate(391.35 545.16)"><tspan x="0" y="0">905</tspan></text>
  <text class="st4" transform="translate(459.93 545.13)"><tspan x="0" y="0">906</tspan></text>
  <text class="st4" transform="translate(529.23 545.16)"><tspan x="0" y="0">907</tspan></text>
  <text class="st4" transform="translate(597.16 545.16)"><tspan x="0" y="0">908</tspan></text>
  <text class="st4" transform="translate(117.58 545.16)"><tspan x="0" y="0">901</tspan></text>
  <text class="st4" transform="translate(181.7 507.15)"><tspan x="0" y="0">1002</tspan></text>
  <text class="st4" transform="translate(250.34 507.15)"><tspan x="0" y="0">1003</tspan></text>
  <text class="st4" transform="translate(318.91 507.15)"><tspan x="0" y="0">1004</tspan></text>
  <text class="st4" transform="translate(387.84 507.15)"><tspan x="0" y="0">1005</tspan></text>
  <text class="st4" transform="translate(456.42 507.12)"><tspan x="0" y="0">1006</tspan></text>
  <text class="st4" transform="translate(525.72 507.15)"><tspan x="0" y="0">1007</tspan></text>
  <text class="st4" transform="translate(593.65 507.15)"><tspan x="0" y="0">1008</tspan></text>
  <text class="st4" transform="translate(114.08 507.15)"><tspan x="0" y="0">1001</tspan></text>
  <text class="st4" transform="translate(183.06 471.85)"><tspan x="0" y="0">1102</tspan></text>
  <text class="st4" transform="translate(251.7 471.85)"><tspan x="0" y="0">1103</tspan></text>
  <text class="st4" transform="translate(320.26 471.85)"><tspan x="0" y="0">1104</tspan></text>
  <text class="st4" transform="translate(389.2 471.85)"><tspan x="0" y="0">1105</tspan></text>
  <text class="st4" transform="translate(457.77 471.82)"><tspan x="0" y="0">1106</tspan></text>
  <text class="st4" transform="translate(527.08 471.85)"><tspan x="0" y="0">1107</tspan></text>
  <text class="st4" transform="translate(595 471.85)"><tspan x="0" y="0">1108</tspan></text>
  <text class="st4" transform="translate(115.43 471.85)"><tspan x="0" y="0">1101</tspan></text>
  <text class="st4" transform="translate(181.97 436.17)"><tspan x="0" y="0">1202</tspan></text>
  <text class="st4" transform="translate(250.61 436.17)"><tspan x="0" y="0">1203</tspan></text>
  <text class="st4" transform="translate(319.17 436.17)"><tspan x="0" y="0">1204</tspan></text>
  <text class="st4" transform="translate(388.11 436.17)"><tspan x="0" y="0">1205</tspan></text>
  <text class="st4" transform="translate(456.69 436.14)"><tspan x="0" y="0">1206</tspan></text>
  <text class="st4" transform="translate(525.99 436.17)"><tspan x="0" y="0">1207</tspan></text>
  <text class="st4" transform="translate(593.92 436.17)"><tspan x="0" y="0">1208</tspan></text>
  <text class="st4" transform="translate(114.34 436.17)"><tspan x="0" y="0">1201</tspan></text>
  <text class="st4" transform="translate(181.89 400.35)"><tspan x="0" y="0">1302</tspan></text>
  <text class="st4" transform="translate(250.53 400.35)"><tspan x="0" y="0">1303</tspan></text>
  <text class="st4" transform="translate(319.09 400.35)"><tspan x="0" y="0">1304</tspan></text>
  <text class="st4" transform="translate(388.03 400.35)"><tspan x="0" y="0">1305</tspan></text>
  <text class="st4" transform="translate(456.61 400.32)"><tspan x="0" y="0">1306</tspan></text>
  <text class="st4" transform="translate(525.91 400.35)"><tspan x="0" y="0">1307</tspan></text>
  <text class="st4" transform="translate(593.84 400.35)"><tspan x="0" y="0">1308</tspan></text>
  <text class="st4" transform="translate(114.26 400.35)"><tspan x="0" y="0">1301</tspan></text>
  <text class="st4" transform="translate(181.74 365.05)"><tspan x="0" y="0">1402</tspan></text>
  <text class="st4" transform="translate(250.38 365.05)"><tspan x="0" y="0">1403</tspan></text>
  <text class="st4" transform="translate(318.94 365.05)"><tspan x="0" y="0">1404</tspan></text>
  <text class="st4" transform="translate(387.88 365.05)"><tspan x="0" y="0">1405</tspan></text>
  <text class="st4" transform="translate(456.46 365.01)"><tspan x="0" y="0">1406</tspan></text>
  <text class="st4" transform="translate(525.76 365.05)"><tspan x="0" y="0">1407</tspan></text>
  <text class="st4" transform="translate(593.69 365.05)"><tspan x="0" y="0">1408</tspan></text>
  <text class="st4" transform="translate(114.11 365.05)"><tspan x="0" y="0">1401</tspan></text>
  <text class="st4" transform="translate(181.96 329.68)"><tspan x="0" y="0">1502</tspan></text>
  <text class="st4" transform="translate(250.6 329.68)"><tspan x="0" y="0">1503</tspan></text>
  <text class="st4" transform="translate(319.16 329.68)"><tspan x="0" y="0">1504</tspan></text>
  <text class="st4" transform="translate(388.1 329.68)"><tspan x="0" y="0">1505</tspan></text>
  <text class="st4" transform="translate(456.68 329.65)"><tspan x="0" y="0">1506</tspan></text>
  <text class="st4" transform="translate(525.98 329.68)"><tspan x="0" y="0">1507</tspan></text>
  <text class="st4" transform="translate(593.91 329.68)"><tspan x="0" y="0">1508</tspan></text>
  <text class="st4" transform="translate(114.33 329.68)"><tspan x="0" y="0">1501</tspan></text>
  <text class="st4" transform="translate(181.91 294.64)"><tspan x="0" y="0">1602</tspan></text>
  <text class="st4" transform="translate(250.55 294.64)"><tspan x="0" y="0">1603</tspan></text>
  <text class="st4" transform="translate(319.11 294.64)"><tspan x="0" y="0">1604</tspan></text>
  <text class="st4" transform="translate(388.05 294.64)"><tspan x="0" y="0">1605</tspan></text>
  <text class="st4" transform="translate(456.63 294.61)"><tspan x="0" y="0">1606</tspan></text>
  <text class="st4" transform="translate(525.93 294.64)"><tspan x="0" y="0">1607</tspan></text>
  <text class="st4" transform="translate(593.86 294.64)"><tspan x="0" y="0">1608</tspan></text>
  <text class="st4" transform="translate(114.28 294.64)"><tspan x="0" y="0">1601</tspan></text>
  <text class="st4" transform="translate(182.5 259.59)"><tspan x="0" y="0">1702</tspan></text>
  <text class="st4" transform="translate(251.14 259.59)"><tspan x="0" y="0">1703</tspan></text>
  <text class="st4" transform="translate(319.7 259.59)"><tspan x="0" y="0">1704</tspan></text>
  <text class="st4" transform="translate(388.64 259.59)"><tspan x="0" y="0">1705</tspan></text>
  <text class="st4" transform="translate(456.43 259.56)"><tspan x="0" y="0">1806</tspan></text>
  <text class="st4" transform="translate(526.52 259.59)"><tspan x="0" y="0">1707</tspan></text>
  <text class="st4" transform="translate(594.45 259.59)"><tspan x="0" y="0">1708</tspan></text>
  <text class="st4" transform="translate(114.87 259.59)"><tspan x="0" y="0">1701</tspan></text>
  <text class="st4" transform="translate(181.71 224.55)"><tspan x="0" y="0">1802</tspan></text>
  <text class="st4" transform="translate(250.35 224.55)"><tspan x="0" y="0">1803</tspan></text>
  <text class="st4" transform="translate(318.91 224.55)"><tspan x="0" y="0">1804</tspan></text>
  <text class="st4" transform="translate(387.85 224.55)"><tspan x="0" y="0">1805</tspan></text>
  <text class="st4" transform="translate(456.43 224.51)"><tspan x="0" y="0">1806</tspan></text>
  <text class="st4" transform="translate(525.73 224.55)"><tspan x="0" y="0">1807</tspan></text>
  <text class="st4" transform="translate(593.66 224.55)"><tspan x="0" y="0">1808</tspan></text>
  <text class="st4" transform="translate(114.08 224.55)"><tspan x="0" y="0">1801</tspan></text>
  <text class="st4" transform="translate(181.98 189.5)"><tspan x="0" y="0">1902</tspan></text>
  <text class="st4" transform="translate(250.62 189.5)"><tspan x="0" y="0">1903</tspan></text>
  <text class="st4" transform="translate(319.18 189.5)"><tspan x="0" y="0">1904</tspan></text>
  <text class="st4" transform="translate(388.12 189.5)"><tspan x="0" y="0">1905</tspan></text>
  <text class="st4" transform="translate(456.7 189.47)"><tspan x="0" y="0">1906</tspan></text>
  <text class="st4" transform="translate(526 189.5)"><tspan x="0" y="0">1907</tspan></text>
  <text class="st4" transform="translate(593.93 189.5)"><tspan x="0" y="0">1908</tspan></text>
  <text class="st4" transform="translate(114.35 189.5)"><tspan x="0" y="0">1901</tspan></text>
  <text class="st4" transform="translate(180.62 154.45)"><tspan x="0" y="0">2002</tspan></text>
  <text class="st4" transform="translate(249.26 154.45)"><tspan x="0" y="0">2003</tspan></text>
  <text class="st4" transform="translate(317.82 154.45)"><tspan x="0" y="0">2004</tspan></text>
  <text class="st4" transform="translate(386.76 154.45)"><tspan x="0" y="0">2005</tspan></text>
  <text class="st4" transform="translate(455.34 154.42)"><tspan x="0" y="0">2006</tspan></text>
  <text class="st4" transform="translate(524.64 154.45)"><tspan x="0" y="0">2007</tspan></text>
  <text class="st4" transform="translate(592.57 154.45)"><tspan x="0" y="0">2008</tspan></text>
  <text class="st4" transform="translate(112.99 154.45)"><tspan x="0" y="0">2001</tspan></text>
  <text class="st4" transform="translate(181.97 119.41)"><tspan x="0" y="0">2102</tspan></text>
  <text class="st4" transform="translate(250.61 119.41)"><tspan x="0" y="0">2103</tspan></text>
  <text class="st4" transform="translate(319.17 119.41)"><tspan x="0" y="0">2104</tspan></text>
  <text class="st4" transform="translate(388.11 119.41)"><tspan x="0" y="0">2105</tspan></text>
  <text class="st4" transform="translate(456.69 119.38)"><tspan x="0" y="0">2106</tspan></text>
  <text class="st4" transform="translate(525.99 119.41)"><tspan x="0" y="0">2107</tspan></text>
  <text class="st4" transform="translate(593.92 119.41)"><tspan x="0" y="0">2108</tspan></text>
  <text class="st4" transform="translate(114.34 119.41)"><tspan x="0" y="0">2101</tspan></text>
  <text class="st4" transform="translate(180.88 84.36)"><tspan x="0" y="0">2202</tspan></text>
  <text class="st4" transform="translate(249.52 84.36)"><tspan x="0" y="0">2203</tspan></text>
  <text class="st4" transform="translate(318.08 84.36)"><tspan x="0" y="0">2204</tspan></text>
  <text class="st4" transform="translate(387.02 84.36)"><tspan x="0" y="0">2205</tspan></text>
  <text class="st4" transform="translate(455.6 84.33)"><tspan x="0" y="0">2206</tspan></text>
  <text class="st4" transform="translate(524.9 84.36)"><tspan x="0" y="0">2207</tspan></text>
  <text class="st4" transform="translate(592.83 84.36)"><tspan x="0" y="0">2208</tspan></text>
  <text class="st4" transform="translate(113.25 84.36)"><tspan x="0" y="0">2201</tspan></text>
  <text/>
  <text class="st2" transform="translate(21.71 43.4)"><tspan x="0" y="0">Tipo</tspan></text>
  <text class="st3" transform="translate(123.23 42.39)"><tspan x="0" y="0">1</tspan></text>
  <text class="st3" transform="translate(198.39 42.39)"><tspan x="0" y="0">2</tspan></text>
  <text class="st3" transform="translate(263.56 42.39)"><tspan x="0" y="0">3</tspan></text>
  <text class="st3" transform="translate(333.61 42.39)"><tspan x="0" y="0">4</tspan></text>
  <text class="st3" transform="translate(398.98 42.39)"><tspan x="0" y="0">5</tspan></text>
  <text class="st3" transform="translate(469.12 42.39)"><tspan x="0" y="0">6</tspan></text>
  <text class="st3" transform="translate(538 42.39)"><tspan x="0" y="0">7</tspan></text>
  <text class="st3" transform="translate(606.7 42.39)"><tspan x="0" y="0">8</tspan></text>
</svg>